<?xml version="1.0" standalone="no"?>
<!DOCTYPE svg PUBLIC "-//W3C//DTD SVG 20010904//EN"
 "http://www.w3.org/TR/2001/REC-SVG-20010904/DTD/svg10.dtd">
<svg version="1.0" xmlns="http://www.w3.org/2000/svg"
 width="1024.000000pt" height="1024.000000pt" viewBox="0 0 1024.000000 1024.000000"
 preserveAspectRatio="xMidYMid meet">

<g transform="translate(0.000000,1024.000000) scale(0.100000,-0.100000)"
fill="#000000" stroke="none">
<path d="M5009 8830 c-322 -51 -582 -320 -618 -638 -37 -338 143 -632 464
-756 117 -45 135 -55 147 -81 8 -18 8 -109 -1 -357 -6 -183 -11 -386 -11 -450
0 -141 -6 -152 -102 -162 -225 -26 -562 -209 -805 -438 -39 -37 -82 -70 -96
-73 -32 -8 -40 -4 -297 161 -118 75 -300 190 -405 254 -450 277 -435 266 -435
330 0 21 6 69 14 107 33 158 29 266 -15 396 -64 195 -250 383 -439 447 -230
77 -481 34 -664 -115 -122 -100 -236 -279 -272 -430 -22 -92 -22 -258 0 -349
58 -240 281 -457 536 -522 92 -23 290 -16 380 15 82 28 178 85 255 150 40 35
68 51 87 51 19 0 77 -34 185 -109 87 -60 254 -168 372 -241 117 -72 294 -184
392 -247 l179 -117 0 -39 c0 -22 -14 -83 -31 -136 -53 -167 -71 -272 -72 -426
-2 -152 9 -215 65 -403 l32 -103 -40 -39 c-21 -22 -124 -90 -229 -151 -104
-61 -308 -185 -452 -275 -144 -90 -268 -167 -276 -170 -9 -3 -49 30 -108 88
-72 72 -113 104 -174 135 -217 112 -458 121 -655 25 -58 -28 -95 -57 -165
-127 -133 -133 -191 -247 -215 -421 -20 -148 9 -306 82 -446 121 -234 361
-371 648 -371 195 0 348 62 478 191 158 159 209 305 196 560 -7 127 -7 127 19
158 14 17 113 82 219 144 106 62 292 174 413 249 121 74 244 150 274 168 73
44 102 43 138 -4 99 -132 292 -302 428 -379 133 -74 381 -154 480 -154 44 0
73 -25 86 -73 8 -29 11 -179 10 -471 0 -419 -1 -430 -21 -451 -11 -12 -40 -28
-63 -35 -139 -41 -318 -175 -406 -304 -43 -62 -95 -177 -112 -246 -17 -69 -17
-228 0 -300 7 -30 33 -97 58 -149 38 -79 59 -108 127 -177 68 -68 98 -90 177
-127 128 -62 222 -82 379 -81 107 1 137 5 205 27 118 39 199 91 300 192 76 75
98 105 138 185 60 121 77 190 77 310 0 162 -42 286 -138 410 -94 120 -257 228
-389 255 -74 16 -88 25 -103 69 -17 51 -19 894 -2 923 18 32 54 47 155 67 281
55 487 167 718 393 75 73 143 133 152 133 9 0 97 -51 194 -114 98 -62 295
-186 438 -276 303 -189 316 -198 345 -244 18 -30 22 -55 26 -163 6 -165 19
-249 50 -342 42 -127 99 -216 204 -321 110 -110 199 -165 351 -217 432 -148
893 112 1015 572 15 54 19 104 18 225 0 142 -2 162 -28 240 -65 195 -170 338
-330 449 -111 77 -294 131 -443 131 -227 -1 -420 -84 -607 -261 -51 -48 -95
-81 -112 -85 -31 -6 -175 79 -644 381 -301 193 -340 223 -340 260 0 12 15 67
34 123 63 185 71 238 71 442 -1 203 -12 269 -74 440 -17 46 -31 93 -31 105 0
31 52 75 165 141 112 64 513 312 734 452 183 116 192 117 331 37 52 -30 131
-67 175 -82 73 -25 94 -27 230 -27 131 -1 158 2 215 22 387 137 591 590 437
972 -113 278 -382 470 -662 470 -86 0 -204 -27 -284 -65 -191 -91 -350 -288
-408 -505 -27 -102 -22 -281 10 -389 18 -60 22 -92 16 -108 -11 -30 -60 -64
-279 -196 -102 -61 -315 -191 -473 -289 -200 -125 -297 -180 -318 -180 -25 -1
-44 12 -107 74 -203 199 -378 311 -595 382 -87 29 -231 56 -293 56 -29 0 -47
6 -60 21 -18 20 -19 43 -19 480 0 528 -9 483 105 514 243 66 439 252 517 490
33 104 42 257 19 365 -53 256 -279 487 -541 555 -75 19 -232 27 -306 15z m240
-235 c221 -58 390 -262 391 -470 1 -382 -393 -632 -738 -470 -88 41 -186 134
-226 213 -91 179 -68 408 56 563 32 40 110 99 175 133 87 44 240 59 342 31z
m-2958 -1229 c138 -30 275 -130 333 -244 77 -152 70 -367 -18 -516 -82 -140
-260 -236 -436 -236 -205 0 -402 143 -462 333 -22 72 -24 219 -3 296 58 219
255 373 485 380 19 0 65 -6 101 -13z m5809 4 c135 -21 279 -118 350 -236 87
-145 92 -349 12 -498 -35 -65 -133 -170 -190 -203 -137 -80 -333 -82 -476 -5
-64 35 -146 110 -186 169 -88 134 -95 362 -16 515 70 135 203 231 356 258 64
11 78 11 150 0z m-2735 -1214 c279 -61 547 -242 734 -496 81 -109 117 -182
149 -299 22 -84 25 -117 25 -256 1 -147 -2 -169 -30 -277 -56 -211 -149 -373
-303 -528 -236 -238 -516 -353 -855 -354 -297 0 -528 93 -741 297 -108 103
-179 197 -237 313 -206 409 -130 961 173 1264 87 88 207 174 316 228 86 43
254 99 349 117 99 18 319 14 420 -9z m-3022 -2161 c92 -24 157 -63 233 -139
104 -105 154 -222 154 -365 0 -285 -188 -472 -475 -471 -130 1 -214 29 -317
108 -174 132 -235 403 -138 610 35 74 132 177 200 212 114 59 232 74 343 45z
m5828 -21 c6 -3 -39 -31 -101 -61 -146 -71 -216 -139 -368 -363 -61 -91 -121
-176 -131 -190 l-20 -25 -22 50 c-17 37 -23 70 -23 126 -1 70 2 82 43 163 79
161 225 278 381 305 58 10 222 7 241 -5z m281 -66 c-16 -16 -152 -24 -152 -10
0 12 33 18 110 21 42 1 51 -2 42 -11z m173 -223 c97 -199 100 -447 8 -618 -40
-75 -152 -188 -220 -224 -103 -54 -158 -67 -278 -67 -127 0 -216 22 -325 81
-127 69 -180 127 -180 198 0 31 11 47 88 129 63 68 113 136 184 252 96 157
155 228 213 256 17 9 71 25 120 37 124 30 163 54 199 121 l29 54 59 -64 c38
-42 75 -97 103 -155z m-3365 -1195 c157 -30 315 -166 365 -314 19 -58 21 -172
4 -242 -33 -140 -146 -287 -263 -344 -173 -85 -365 -73 -528 32 -119 77 -188
178 -209 305 -47 284 205 572 502 573 42 0 100 -4 129 -10z"/>
<path d="M5240 8391 c0 -17 43 -63 69 -73 15 -5 58 -7 104 -3 86 8 95 18 52
60 -22 23 -31 25 -125 25 -55 0 -100 -4 -100 -9z"/>
<path d="M5335 8154 c-11 -3 -30 -7 -41 -9 -15 -3 -23 -14 -26 -34 -4 -27 -2
-29 40 -35 85 -11 186 -7 210 10 26 18 29 49 5 58 -23 9 -163 16 -188 10z"/>
<path d="M4745 8061 c-3 -5 -1 -12 5 -16 5 -3 10 1 10 9 0 18 -6 21 -15 7z"/>
<path d="M5397 7942 c-25 -27 -21 -42 11 -42 31 0 68 32 57 49 -10 17 -50 13
-68 -7z"/>
<path d="M5042 7791 l-34 -6 24 -21 c40 -37 71 -48 138 -47 63 0 150 30 150
52 0 23 -191 38 -278 22z"/>
<path d="M2260 7223 c-41 -16 -39 -53 2 -53 42 0 125 40 106 51 -14 10 -85 11
-108 2z"/>
<path d="M2430 7103 c-38 -7 -71 -43 -64 -67 9 -30 21 -34 68 -29 48 6 117 49
110 68 -3 8 -19 18 -36 24 -32 11 -35 11 -78 4z"/>
<path d="M2400 6864 c-44 -15 -89 -38 -85 -44 9 -15 125 -32 172 -25 66 9 97
30 83 55 -9 17 -21 20 -83 19 -40 0 -79 -3 -87 -5z"/>
<path d="M2185 6565 c-42 -15 -85 -56 -85 -81 0 -11 18 -14 83 -15 45 -1 96 0
112 0 30 2 137 22 144 27 5 4 -55 55 -83 71 -28 17 -122 15 -171 -2z"/>
<path d="M8057 7240 c-22 -31 -21 -37 4 -43 25 -7 36 15 22 45 l-9 22 -17 -24z"/>
<path d="M8232 7135 c-40 -18 -50 -40 -27 -65 23 -26 129 -28 163 -4 33 23 28
52 -13 70 -43 18 -80 17 -123 -1z"/>
<path d="M8284 6925 c-14 -14 -24 -33 -22 -43 3 -14 16 -17 86 -17 88 0 102 7
102 51 0 18 -8 22 -46 28 -76 10 -94 7 -120 -19z"/>
<path d="M8260 6761 c-72 -15 -115 -56 -84 -82 24 -20 162 -24 207 -6 94 40
-8 113 -123 88z"/>
<path d="M7933 6573 c-18 -2 -33 -8 -33 -13 0 -5 24 -23 53 -40 47 -28 59 -31
127 -28 66 3 83 8 133 38 31 19 57 38 57 42 0 8 -275 8 -337 1z"/>
<path d="M5021 5756 c-315 -60 -553 -267 -627 -546 -24 -90 -24 -282 0 -368
67 -244 247 -438 481 -518 74 -26 92 -28 245 -28 149 -1 172 1 235 23 196 67
341 182 433 343 43 75 89 218 102 321 29 218 -48 430 -211 581 -80 74 -231
154 -340 180 -95 23 -231 28 -318 12z m284 -257 c116 -35 248 -134 300 -224
35 -61 49 -136 42 -234 -13 -203 -134 -383 -317 -470 l-75 -36 -156 0 -155 0
-75 37 c-196 97 -292 312 -248 554 26 142 126 277 253 340 130 64 291 76 431
33z"/>
<path d="M5372 5318 c-38 -38 8 -77 69 -59 46 14 48 22 13 50 -30 23 -64 27
-82 9z"/>
<path d="M5390 5131 c-47 -9 -60 -18 -60 -41 0 -32 55 -53 122 -47 66 6 108
28 108 57 0 33 -83 48 -170 31z"/>
<path d="M5370 4888 c-106 -30 -85 -95 27 -86 59 5 106 33 111 65 5 31 -65 42
-138 21z"/>
<path d="M5212 4700 c-46 -19 -37 -59 14 -60 19 0 72 45 63 54 -11 11 -56 14
-77 6z"/>
<path d="M6020 5550 c-6 -11 -7 -20 -3 -20 5 0 14 9 21 20 7 11 8 20 2 20 -5
0 -14 -9 -20 -20z"/>
<path d="M6057 5394 c-4 -4 -7 -18 -7 -31 0 -21 4 -24 33 -21 27 2 32 7 32 28
0 19 -6 26 -25 28 -14 2 -29 0 -33 -4z"/>
<path d="M4220 5323 c0 -4 5 -15 10 -23 8 -13 10 -13 10 2 0 9 -4 20 -10 23
-5 3 -10 3 -10 -2z"/>
<path d="M6112 5188 c-7 -7 -12 -22 -12 -35 0 -27 42 -42 65 -23 28 23 11 70
-25 70 -9 0 -21 -5 -28 -12z"/>
<path d="M4187 5011 c3 -12 11 -17 19 -14 18 7 13 27 -9 31 -11 2 -14 -2 -10
-17z"/>
<path d="M6121 4914 c0 -11 3 -14 6 -6 3 7 2 16 -1 19 -3 4 -6 -2 -5 -13z"/>
<path d="M6057 4754 c-4 -4 -7 -16 -7 -26 0 -15 6 -19 28 -16 19 2 27 9 27 23
0 20 -33 33 -48 19z"/>
<path d="M5936 4524 c-7 -19 10 -44 29 -44 19 0 36 25 29 44 -3 9 -16 16 -29
16 -13 0 -26 -7 -29 -16z"/>
<path d="M4408 4503 c-19 -5 -25 -23 -9 -23 17 0 41 12 41 21 0 9 -4 10 -32 2z"/>
<path d="M2483 3663 c-22 -8 -15 -51 12 -69 25 -17 51 -15 108 8 33 13 35 32
5 52 -21 15 -98 21 -125 9z"/>
<path d="M2457 3440 c-58 -11 -64 -24 -22 -50 48 -30 111 -36 158 -17 31 14
37 21 37 46 l0 31 -67 -1 c-38 -1 -85 -5 -106 -9z"/>
<path d="M2300 3226 c-30 -6 -66 -18 -80 -26 -24 -13 -23 -14 40 -32 80 -22
177 -23 229 -2 39 15 59 43 46 64 -8 14 -167 11 -235 -4z"/>
<path d="M8441 3501 c-57 -15 -49 -60 16 -88 66 -27 133 -11 133 32 0 39 -88
72 -149 56z"/>
<path d="M8321 3211 c-36 -10 -36 -26 1 -52 67 -48 213 -22 213 37 0 17 -9 19
-95 21 -52 1 -106 -2 -119 -6z"/>
<path d="M8123 2970 c-47 -10 -83 -26 -83 -39 0 -11 160 -41 215 -41 22 0 56
5 76 10 40 11 85 53 74 69 -7 13 -218 13 -282 1z"/>
<path d="M5320 2342 c-9 -4 -27 -15 -40 -24 -24 -17 -24 -18 -5 -33 12 -8 43
-15 75 -15 30 0 78 -9 106 -18 l51 -18 -19 33 c-42 70 -110 101 -168 75z"/>
<path d="M5372 2210 c-47 -11 -56 -23 -33 -44 60 -54 202 -24 178 38 -7 18
-82 21 -145 6z"/>
<path d="M5400 2049 c-40 -16 -60 -40 -60 -71 l0 -28 73 0 c72 0 136 21 144
46 6 18 -54 56 -95 60 -20 2 -48 -1 -62 -7z"/>
<path d="M4746 2041 c-4 -7 -5 -15 -2 -18 9 -9 19 4 14 18 -4 11 -6 11 -12 0z"/>
<path d="M5235 1736 c-5 -3 -31 -7 -56 -11 -43 -5 -89 -34 -89 -55 0 -36 224
-40 294 -5 48 24 55 40 26 55 -22 12 -156 23 -175 16z"/>
</g>
</svg>
